<svg width="30" height="10" viewBox="0 0 30 10" fill="none" xmlns="http://www.w3.org/2000/svg">
<path fill-rule="evenodd" clip-rule="evenodd" d="M26.5679 3.4629C27.5699 3.4629 28.2379 4.2009 28.2609 5.3199H24.7809C24.8569 4.2009 25.5599 3.4629 26.5679 3.4629ZM29.3219 6.1349V5.7479C29.3219 3.7849 28.2849 2.5719 26.5799 2.5719C24.8449 2.5719 23.7319 3.8609 23.7319 5.8479C23.7319 7.8459 24.8279 9.1109 26.5799 9.1109C27.9629 9.1109 28.9469 8.4429 29.2399 7.3649H28.2319C27.9679 7.9219 27.4179 8.2209 26.6029 8.2209C25.5309 8.2209 24.8339 7.4299 24.7809 6.1819V6.1349H29.3219ZM19.7749 2.6839H20.7349V3.6209H20.8289C21.0169 3.0059 21.7429 2.5719 22.5809 2.5719C22.7449 2.5719 22.9559 2.5839 23.0849 2.6019V3.6089C23.0029 3.5859 22.6399 3.5509 22.4409 3.5509C21.4799 3.5509 20.7819 4.6489 20.7819 5.0859V8.9999H19.7749V2.6839ZM15.5049 8.2029C14.3099 8.2029 13.6359 7.3359 13.6359 5.8419C13.6359 4.3419 14.3099 3.4809 15.5049 3.4809C16.7009 3.4809 17.3749 4.3419 17.3749 5.8419C17.3749 7.3359 16.7009 8.2029 15.5049 8.2029ZM15.5049 2.5719C13.7069 2.5719 12.5929 3.8089 12.5929 5.8419C12.5929 7.8689 13.7069 9.1109 15.5049 9.1109C17.3039 9.1109 18.4179 7.8689 18.4179 5.8419C18.4179 3.8089 17.3039 2.5719 15.5049 2.5719ZM10.0269 1.0969V2.7319H11.4339V3.5749H10.0269V7.1499C10.0269 7.8939 10.3089 8.2099 10.9649 8.2099C11.1469 8.2099 11.2459 8.2039 11.4339 8.1869V9.0359C11.2349 9.0709 11.0409 9.0949 10.8419 9.0949C9.54091 9.0949 9.01991 8.6139 9.01991 7.4069V3.5749H7.99991V2.7319H9.01991V1.0969H10.0269ZM1.92391 6.7909C2.05291 7.6759 2.89691 8.2379 4.09791 8.2379C5.23491 8.2379 6.07291 7.6229 6.07291 6.7849C6.07291 6.0649 5.54591 5.6079 4.37991 5.3149L3.29591 5.0329C1.76591 4.6469 1.10391 3.9549 1.10391 2.7539C1.10391 1.3179 2.30491 0.3459 4.09191 0.3459C5.72691 0.3459 6.94591 1.3179 7.03391 2.6839H5.97291C5.82691 1.8169 5.11191 1.3009 4.05691 1.3009C2.93191 1.3009 2.18791 1.8629 2.18791 2.7189C2.18791 3.3809 2.65091 3.7619 3.81691 4.0609L4.70191 4.2949C6.45391 4.7339 7.15691 5.4139 7.15691 6.6559C7.15691 8.2089 5.93191 9.1989 3.99891 9.1989C2.20591 9.1989 0.96891 8.2499 0.85791 6.7909H1.92391Z" fill="white"/>
</svg>
